<svg xmlns="http://www.w3.org/2000/svg" xmlns:xlink="http://www.w3.org/1999/xlink" width="1000" zoomAndPan="magnify" viewBox="0 0 750 749.999995" height="1000" preserveAspectRatio="xMidYMid meet" version="1.0"><defs><clipPath id="b0a8a07836"><path d="M 226 226.3125 L 524 226.3125 L 524 524 L 226 524 Z M 226 226.3125 " clip-rule="nonzero"/></clipPath></defs><rect x="-75" width="900" fill="#ffffff" y="-74.999999" height="899.999994" fill-opacity="1"/><rect x="-75" width="900" fill="#ffffff" y="-74.999999" height="899.999994" fill-opacity="1"/><g clip-path="url(#b0a8a07836)"><path fill="#ff5757" d="M 416.238281 376.625 C 415.308594 375.695312 415.308594 374.304688 416.238281 373.375 L 519.390625 270.222656 C 524.964844 264.644531 524.964844 255.351562 519.390625 249.777344 L 500.570312 230.496094 C 497.785156 227.707031 494.066406 226.3125 490.347656 226.3125 C 486.632812 226.3125 482.914062 227.707031 480.125 230.496094 L 376.742188 333.878906 C 376.277344 334.34375 375.582031 334.574219 375.117188 334.574219 C 374.652344 334.574219 373.953125 334.34375 373.488281 333.878906 L 270.105469 230.496094 C 267.316406 227.707031 263.601562 226.3125 259.882812 226.3125 C 256.167969 226.3125 252.449219 227.707031 249.660156 230.496094 L 230.609375 249.546875 C 225.035156 255.121094 225.035156 264.414062 230.609375 269.988281 L 333.761719 373.140625 C 334.691406 374.070312 334.691406 375.464844 333.761719 376.394531 L 230.609375 480.011719 C 225.035156 485.585938 225.035156 494.878906 230.609375 500.453125 L 249.660156 519.503906 C 252.449219 522.292969 256.167969 523.6875 259.882812 523.6875 C 263.601562 523.6875 267.316406 522.292969 270.105469 519.503906 L 373.257812 416.355469 C 373.722656 415.890625 374.417969 415.65625 374.882812 415.65625 C 375.347656 415.65625 376.046875 415.890625 376.511719 416.355469 L 479.660156 519.503906 C 482.449219 522.292969 486.167969 523.6875 489.882812 523.6875 C 493.601562 523.6875 497.320312 522.292969 500.105469 519.503906 L 519.15625 500.453125 C 524.734375 494.878906 524.734375 485.585938 519.15625 480.011719 Z M 416.238281 376.625 " fill-opacity="1" fill-rule="nonzero"/></g></svg>