<svg xmlns="http://www.w3.org/2000/svg" xmlns:xlink="http://www.w3.org/1999/xlink" width="1000" zoomAndPan="magnify" viewBox="0 0 750 749.999995" height="1000" preserveAspectRatio="xMidYMid meet" version="1.0"><defs><clipPath id="9c80f35280"><path d="M 209.023438 229 L 541 229 L 541 520.226562 L 209.023438 520.226562 Z M 209.023438 229 " clip-rule="nonzero"/></clipPath><clipPath id="074df4f1f8"><path d="M 222.183594 276.148438 C 195.269531 320.492188 214.230469 363.648438 238.0625 386.554688 L 377.386719 520.226562 L 513.773438 387.035156 C 535.9375 362.394531 544.433594 336.253906 539.714844 307.148438 C 533.195312 266.886719 500.019531 235.652344 459.035156 231.191406 C 433.898438 228.484375 409.613281 235.597656 390.664062 251.347656 C 385.5625 255.585938 381.003906 260.320312 377.027344 265.472656 C 372.3125 259.609375 366.785156 254.246094 360.53125 249.492188 C 338.738281 232.929688 310.996094 226.355469 284.351562 231.46875 C 259.113281 236.34375 236.457031 252.625 222.183594 276.148438 Z M 222.183594 276.148438 " clip-rule="nonzero"/></clipPath></defs><rect x="-75" width="900" fill="#ffffff" y="-74.999999" height="899.999994" fill-opacity="1"/><rect x="-75" width="900" fill="#ffffff" y="-74.999999" height="899.999994" fill-opacity="1"/><g clip-path="url(#9c80f35280)"><g clip-path="url(#074df4f1f8)"><path fill="#7ed957" d="M 209.023438 229.773438 L 541.460938 229.773438 L 541.460938 520.226562 L 209.023438 520.226562 Z M 209.023438 229.773438 " fill-opacity="1" fill-rule="nonzero"/></g></g></svg>